<svg xmlns="http://www.w3.org/2000/svg" xmlns:xlink="http://www.w3.org/1999/xlink" viewBox="0 0 29.38 31.16"><defs><style>.cls-1{font-size:22.86px;fill:#662d91;stroke:#f1f2f2;stroke-linejoin:bevel;font-family:Mustardo;}.cls-2{font-size:14.8px;fill:#010101;stroke:#662d91;stroke-miterlimit:10;stroke-width:0.75px;font-family:AgencyFB-Reg, Agency FB;}.cls-3{letter-spacing:-0.14em;}.cls-4{opacity:0.82;fill:url(#linear-gradient);}.cls-5{opacity:0.83;fill:url(#linear-gradient-2);}</style><linearGradient id="linear-gradient" x1="25.14" y1="115.39" x2="51.45" y2="115.39" gradientTransform="matrix(1.02, 0.07, -0.05, 0.74, -19.29, -73.1)" gradientUnits="userSpaceOnUse"><stop offset="0" stop-color="#6abd45" stop-opacity="0.8"/><stop offset="1" stop-color="#b3d88e" stop-opacity="0.79"/></linearGradient><linearGradient id="linear-gradient-2" x1="337.77" y1="-663.98" x2="367.15" y2="-663.98" gradientTransform="matrix(-0.64, -0.73, 0.82, -0.72, 790.74, -207.72)" gradientUnits="userSpaceOnUse"><stop offset="0.26" stop-color="#1072ba" stop-opacity="0.72"/><stop offset="0.96" stop-color="#70cddd" stop-opacity="0.44"/></linearGradient></defs><title>Logo sks</title><g id="Layer_2" data-name="Layer 2"><g id="Layer_1-2" data-name="Layer 1"><text class="cls-1" transform="translate(5.31 21.6) scale(1.1 1)">S</text><text class="cls-2" transform="translate(14.8 21.66) scale(1.24 1)"><tspan class="cls-3">k</tspan><tspan x="2.93" y="0">s</tspan></text><path class="cls-4" d="M.64,18.58c.42-3.22,15.06.75,24.07-8.77,1.24-1.31,3-3.54,3.54-3.09s-.7,5.25-2.89,8.68c-4.49,7-13.71,10.75-20.82,7C3.81,22,.44,20.15.64,18.58Z"/><path class="cls-5" d="M28.68,23.35c-2.72,3-9.66-14.64-23-13-1.83.22-4.72.91-4.74-.05,0-1.2,4.46-4.81,8.53-6.36C17.86.71,26.93,5.34,28.88,15.83,29.08,16.92,30,21.9,28.68,23.35Z"/></g></g></svg>